<svg xmlns="http://www.w3.org/2000/svg" xmlns:xlink="http://www.w3.org/1999/xlink" width="25.12" height="25.128" viewBox="0 0 25.12 25.128">
  <defs>
    <clipPath id="clip-path">
      <rect id="Rectangle_849" data-name="Rectangle 849" width="8.044" height="5.957" fill="#fff"/>
    </clipPath>
  </defs>
  <g id="blue-tick" transform="translate(0.75 0.75)">
    <path id="Path_2693" data-name="Path 2693" d="M21.29,15.752a4.342,4.342,0,0,1-1.12,4.38A4.5,4.5,0,0,1,15.745,21.3a4.465,4.465,0,0,1-7.841,0,4.5,4.5,0,0,1-5.589-5.516,4.545,4.545,0,0,1,.023-7.934,4.444,4.444,0,0,1,5.548-5.5,4.453,4.453,0,0,1,7.85-.01,4.37,4.37,0,0,1,4.429,1.141A4.577,4.577,0,0,1,21.3,7.9a4.479,4.479,0,0,1-.014,7.852" transform="translate(0 -0.001)" fill="currentColor" class="color-primary" stroke="#fff" stroke-linecap="round" stroke-width="1.5"/>
    <g id="Group_1691" data-name="Group 1691" transform="translate(7.762 8.675)" style="isolation: isolate">
      <g id="Group_1690" data-name="Group 1690">
        <g id="Group_1689" data-name="Group 1689" clip-path="url(#clip-path)">
          <path id="Path_2692" data-name="Path 2692" d="M62.652,70.093q-.85.859-1.707,1.713l-2.339,2.336a.868.868,0,0,1-1.44.026c-.659-.644-1.3-1.307-1.957-1.952a.9.9,0,1,1,1.308-1.241c.333.317.657.645.987.967.116.113.238.22.4.369.175-.171.3-.294.431-.421l2.757-2.757a3.739,3.739,0,0,1,.36-.337.9.9,0,0,1,1.431.366.762.762,0,0,1-.231.929" transform="translate(-54.915 -68.581)" fill="#fff"/>
        </g>
      </g>
    </g>
  </g>
</svg>
